<svg width="2762" height="2974" viewBox="0 0 2762 2974" fill="none" xmlns="http://www.w3.org/2000/svg">
<path d="M1274.77 1497.62L1293.58 1495.74C1326.17 1489.74 1381 1466.1 1381 1380.79V1487L1293.58 1495.74C1285.6 1497.21 1278.95 1497.62 1274.77 1497.62Z" fill="white"/>
<path d="M1381 531.071V637.286C1381 616.043 1381 531.071 1274.77 531.071H1381Z" fill="white"/>
<path d="M531.154 531.071H637.385C616.138 531.071 531.154 531.071 531.154 637.286V531.071Z" fill="white"/>
<path d="M1381 2442.93V2336.71C1381 2357.96 1381 2442.93 1487.23 2442.93H1381Z" fill="white"/>
<path d="M2230.85 2442.93H2124.62C2145.86 2442.93 2230.85 2442.93 2230.85 2336.71V2442.93Z" fill="white"/>
<path d="M1381 1487L1487.23 1476.38C1444.74 1487 1381 1497.62 1381 1603.84V1487Z" fill="white"/>
<path d="M849.846 2442.93H2762C2762 2736.23 2524.19 2974 2230.85 2974H1381C1087.65 2974 849.846 2736.23 849.846 2442.93Z" fill="white"/>
<path d="M849.846 2442.93V2018.07C849.846 1724.77 1087.65 1487 1381 1487V2442.93H849.846Z" fill="white"/>
<path d="M2230.85 2442.93V1168.36C2230.85 875.055 2468.65 637.286 2762 637.286V2442.93H2230.85Z" fill="white"/>
<path d="M1912.15 531.071H2.10824e-06C2.10824e-06 237.769 237.806 0 531.154 0H1381C1674.35 0 1912.15 237.769 1912.15 531.071Z" fill="white"/>
<path d="M1912.15 531.071V955.928C1912.15 1249.23 1674.35 1487 1381 1487V531.071H1912.15Z" fill="white"/>
<path d="M531.154 531.071L531.154 1805.64C531.154 2098.95 293.348 2336.71 0 2336.71L2.10824e-06 531.071H531.154Z" fill="white"/>
</svg>
